<svg width="540" height="287" viewBox="0 0 540 287" fill="none" xmlns="http://www.w3.org/2000/svg">
<g clip-path="url(#clip0_60_101)">
<path fill-rule="evenodd" clip-rule="evenodd" d="M8 0H532C536.418 0 540 3.58172 540 8V279C540 283.418 536.418 287 532 287H8C3.58172 287 0 283.418 0 279V8C0 3.58172 3.58172 0 8 0Z" fill="white"/>
<path fill-rule="evenodd" clip-rule="evenodd" d="M240 68H390C392.761 68 395 70.2386 395 73C395 75.7614 392.761 78 390 78H240C237.239 78 235 75.7614 235 73C235 70.2386 237.239 68 240 68Z" fill="#CBD6E2"/>
<path d="M124 188C159.346 188 188 159.346 188 124C188 88.6538 159.346 60 124 60C88.6538 60 60 88.6538 60 124C60 159.346 88.6538 188 124 188Z" fill="#F2F5F8"/>
<path fill-rule="evenodd" clip-rule="evenodd" d="M155.282 107.403C153.023 106.52 150.503 107.11 148.827 108.952L125.439 136.255C124.747 137.013 123.615 137.107 123.078 136.724L111.579 123.858C110.315 122.877 108.755 122.47 107.165 122.697C105.586 122.931 104.201 123.776 103.365 124.957L90.2403 140.528C88.8597 142.31 88.6108 144.679 89.5986 146.708C90.5825 148.737 92.5931 150 94.8409 150H153.167C156.383 150 159 147.369 159 144.136V112.869C159 110.429 157.542 108.287 155.282 107.403Z" fill="#CBD6E2"/>
<path fill-rule="evenodd" clip-rule="evenodd" d="M95.5 111C99.0912 111 102 108.091 102 104.5C102 100.909 99.0912 98 95.5 98C91.9088 98 89 100.909 89 104.5C89 108.091 91.9088 111 95.5 111Z" fill="#CBD6E2"/>
<path d="M90 226C96.6274 226 102 220.627 102 214C102 207.373 96.6274 202 90 202C83.3726 202 78 207.373 78 214C78 220.627 83.3726 226 90 226Z" fill="#CBD6E2"/>
<path d="M125 226C131.627 226 137 220.627 137 214C137 207.373 131.627 202 125 202C118.373 202 113 207.373 113 214C113 220.627 118.373 226 125 226Z" fill="#CBD6E2"/>
<path d="M159 226C165.627 226 171 220.627 171 214C171 207.373 165.627 202 159 202C152.373 202 147 207.373 147 214C147 220.627 152.373 226 159 226Z" fill="#CBD6E2"/>
<path fill-rule="evenodd" clip-rule="evenodd" d="M240 96H390C392.761 96 395 98.2386 395 101C395 103.761 392.761 106 390 106H240C237.239 106 235 103.761 235 101C235 98.2386 237.239 96 240 96Z" fill="#CBD6E2"/>
<path fill-rule="evenodd" clip-rule="evenodd" d="M240 161H474C476.761 161 479 163.239 479 166C479 168.761 476.761 171 474 171H240C237.239 171 235 168.761 235 166C235 163.239 237.239 161 240 161Z" fill="#CBD6E2"/>
<path fill-rule="evenodd" clip-rule="evenodd" d="M240 189H474C476.761 189 479 191.239 479 194C479 196.761 476.761 199 474 199H240C237.239 199 235 196.761 235 194C235 191.239 237.239 189 240 189Z" fill="#CBD6E2"/>
<path fill-rule="evenodd" clip-rule="evenodd" d="M241 216H475C477.761 216 480 218.239 480 221C480 223.761 477.761 226 475 226H241C238.239 226 236 223.761 236 221C236 218.239 238.239 216 241 216Z" fill="#CBD6E2"/>
<rect width="540" height="287" rx="8" fill="#181251" fill-opacity="0.5"/>
<path d="M270 208C305.346 208 334 179.346 334 144C334 108.654 305.346 80 270 80C234.654 80 206 108.654 206 144C206 179.346 234.654 208 270 208Z" fill="#CA4655"/>
<path d="M295.925 123.778L259.666 160.036L243.185 143.555" stroke="white" stroke-width="7" stroke-linecap="round" stroke-linejoin="round"/>
</g>
<defs>
<clipPath id="clip0_60_101">
<rect width="540" height="287" rx="8" fill="white"/>
</clipPath>
</defs>
</svg>
