<svg width="540" height="393" viewBox="0 0 540 393" fill="none" xmlns="http://www.w3.org/2000/svg">
<g clip-path="url(#clip0_60_182)">
<path fill-rule="evenodd" clip-rule="evenodd" d="M8 0H532C536.418 0 540 3.58172 540 8V385C540 389.418 536.418 393 532 393H8C3.58172 393 0 389.418 0 385V8C0 3.58172 3.58172 0 8 0Z" fill="white"/>
<path fill-rule="evenodd" clip-rule="evenodd" d="M65 105H215C217.761 105 220 107.239 220 110C220 112.761 217.761 115 215 115H65C62.2386 115 60 112.761 60 110C60 107.239 62.2386 105 65 105Z" fill="#CBD6E2"/>
<path fill-rule="evenodd" clip-rule="evenodd" d="M65 133H215C217.761 133 220 135.239 220 138C220 140.761 217.761 143 215 143H65C62.2386 143 60 140.761 60 138C60 135.239 62.2386 133 65 133Z" fill="#CBD6E2"/>
<path d="M416 188C451.346 188 480 159.346 480 124C480 88.6538 451.346 60 416 60C380.654 60 352 88.6538 352 124C352 159.346 380.654 188 416 188Z" fill="#F2F5F8"/>
<path fill-rule="evenodd" clip-rule="evenodd" d="M447.282 107.403C445.023 106.52 442.503 107.11 440.827 108.952L417.439 136.255C416.747 137.013 415.615 137.107 415.078 136.724L403.579 123.858C402.315 122.877 400.755 122.47 399.165 122.697C397.586 122.931 396.201 123.776 395.365 124.957L382.24 140.528C380.86 142.31 380.611 144.679 381.599 146.708C382.582 148.737 384.593 150 386.841 150H445.167C448.383 150 451 147.369 451 144.136V112.869C451 110.429 449.542 108.287 447.282 107.403Z" fill="#CBD6E2"/>
<path fill-rule="evenodd" clip-rule="evenodd" d="M387.5 111C391.091 111 394 108.091 394 104.5C394 100.909 391.091 98 387.5 98C383.909 98 381 100.909 381 104.5C381 108.091 383.909 111 387.5 111Z" fill="#CBD6E2"/>
<path fill-rule="evenodd" clip-rule="evenodd" d="M65 218H299C301.761 218 304 220.239 304 223C304 225.761 301.761 228 299 228H65C62.2386 228 60 225.761 60 223C60 220.239 62.2386 218 65 218Z" fill="#CBD6E2"/>
<path fill-rule="evenodd" clip-rule="evenodd" d="M65 246H299C301.761 246 304 248.239 304 251C304 253.761 301.761 256 299 256H65C62.2386 256 60 253.761 60 251C60 248.239 62.2386 246 65 246Z" fill="#CBD6E2"/>
<path fill-rule="evenodd" clip-rule="evenodd" d="M66 273H300C302.761 273 305 275.239 305 278C305 280.761 302.761 283 300 283H66C63.2386 283 61 280.761 61 278C61 275.239 63.2386 273 66 273Z" fill="#CBD6E2"/>
<path fill-rule="evenodd" clip-rule="evenodd" d="M65 316H183C185.761 316 188 318.239 188 321C188 323.761 185.761 326 183 326H65C62.2386 326 60 323.761 60 321C60 318.239 62.2386 316 65 316Z" fill="#CBD6E2"/>
<path d="M382 333C388.627 333 394 327.627 394 321C394 314.373 388.627 309 382 309C375.373 309 370 314.373 370 321C370 327.627 375.373 333 382 333Z" fill="#CBD6E2"/>
<path d="M417 333C423.627 333 429 327.627 429 321C429 314.373 423.627 309 417 309C410.373 309 405 314.373 405 321C405 327.627 410.373 333 417 333Z" fill="#CBD6E2"/>
<path d="M451 333C457.627 333 463 327.627 463 321C463 314.373 457.627 309 451 309C444.373 309 439 314.373 439 321C439 327.627 444.373 333 451 333Z" fill="#CBD6E2"/>
<rect width="540" height="393" rx="8" fill="#181251" fill-opacity="0.5"/>
<path d="M270 261C305.346 261 334 232.346 334 197C334 161.654 305.346 133 270 133C234.654 133 206 161.654 206 197C206 232.346 234.654 261 270 261Z" fill="#CA4655"/>
<path d="M295.925 176.778L259.666 213.036L243.185 196.555" stroke="white" stroke-width="7" stroke-linecap="round" stroke-linejoin="round"/>
</g>
<defs>
<clipPath id="clip0_60_182">
<rect width="540" height="393" rx="8" fill="white"/>
</clipPath>
</defs>
</svg>
