<svg width="540" height="393" viewBox="0 0 540 393" fill="none" xmlns="http://www.w3.org/2000/svg">
<g clip-path="url(#clip0_60_199)">
<path fill-rule="evenodd" clip-rule="evenodd" d="M8 0H532C536.418 0 540 3.58172 540 8V385C540 389.418 536.418 393 532 393H8C3.58172 393 0 389.418 0 385V8C0 3.58172 3.58172 0 8 0Z" fill="white"/>
<path fill-rule="evenodd" clip-rule="evenodd" d="M65 208H215C217.761 208 220 210.239 220 213C220 215.761 217.761 218 215 218H65C62.2386 218 60 215.761 60 213C60 210.239 62.2386 208 65 208Z" fill="#CBD6E2"/>
<path fill-rule="evenodd" clip-rule="evenodd" d="M65 236H215C217.761 236 220 238.239 220 241C220 243.761 217.761 246 215 246H65C62.2386 246 60 243.761 60 241C60 238.239 62.2386 236 65 236Z" fill="#CBD6E2"/>
<path d="M124 188C159.346 188 188 159.346 188 124C188 88.6538 159.346 60 124 60C88.6538 60 60 88.6538 60 124C60 159.346 88.6538 188 124 188Z" fill="#F2F5F8"/>
<path fill-rule="evenodd" clip-rule="evenodd" d="M155.282 107.403C153.023 106.52 150.503 107.11 148.827 108.952L125.439 136.255C124.747 137.013 123.615 137.107 123.078 136.724L111.579 123.858C110.315 122.877 108.755 122.47 107.165 122.697C105.586 122.931 104.201 123.776 103.365 124.957L90.2403 140.528C88.8597 142.31 88.6108 144.679 89.5986 146.708C90.5825 148.737 92.5931 150 94.8409 150H153.167C156.383 150 159 147.369 159 144.136V112.869C159 110.429 157.542 108.287 155.282 107.403Z" fill="#CBD6E2"/>
<path fill-rule="evenodd" clip-rule="evenodd" d="M95.5 111C99.0912 111 102 108.091 102 104.5C102 100.909 99.0912 98 95.5 98C91.9088 98 89 100.909 89 104.5C89 108.091 91.9088 111 95.5 111Z" fill="#CBD6E2"/>
<path fill-rule="evenodd" clip-rule="evenodd" d="M255 208H475C477.761 208 480 210.239 480 213C480 215.761 477.761 218 475 218H255C252.239 218 250 215.761 250 213C250 210.239 252.239 208 255 208Z" fill="#CBD6E2"/>
<path fill-rule="evenodd" clip-rule="evenodd" d="M255 236H475C477.761 236 480 238.239 480 241C480 243.761 477.761 246 475 246H255C252.239 246 250 243.761 250 241C250 238.239 252.239 236 255 236Z" fill="#CBD6E2"/>
<path fill-rule="evenodd" clip-rule="evenodd" d="M255 263H475C477.761 263 480 265.239 480 268C480 270.761 477.761 273 475 273H255C252.239 273 250 270.761 250 268C250 265.239 252.239 263 255 263Z" fill="#CBD6E2"/>
<path d="M399 333C405.627 333 411 327.627 411 321C411 314.373 405.627 309 399 309C392.373 309 387 314.373 387 321C387 327.627 392.373 333 399 333Z" fill="#CBD6E2"/>
<path d="M434 333C440.627 333 446 327.627 446 321C446 314.373 440.627 309 434 309C427.373 309 422 314.373 422 321C422 327.627 427.373 333 434 333Z" fill="#CBD6E2"/>
<path d="M468 333C474.627 333 480 327.627 480 321C480 314.373 474.627 309 468 309C461.373 309 456 314.373 456 321C456 327.627 461.373 333 468 333Z" fill="#CBD6E2"/>
<path fill-rule="evenodd" clip-rule="evenodd" d="M65 316H183C185.761 316 188 318.239 188 321C188 323.761 185.761 326 183 326H65C62.2386 326 60 323.761 60 321C60 318.239 62.2386 316 65 316Z" fill="#CBD6E2"/>
<rect width="540" height="393" rx="8" fill="#181251" fill-opacity="0.25"/>
<path d="M270 261C305.346 261 334 232.346 334 197C334 161.654 305.346 133 270 133C234.654 133 206 161.654 206 197C206 232.346 234.654 261 270 261Z" fill="#CA4655"/>
<path d="M295.925 176.778L259.666 213.036L243.185 196.555" stroke="white" stroke-width="7" stroke-linecap="round" stroke-linejoin="round"/>
</g>
<defs>
<clipPath id="clip0_60_199">
<rect width="540" height="393" rx="8" fill="white"/>
</clipPath>
</defs>
</svg>
