<svg width="540" height="287" viewBox="0 0 540 287" fill="none" xmlns="http://www.w3.org/2000/svg">
<g clip-path="url(#clip0_60_151)">
<path fill-rule="evenodd" clip-rule="evenodd" d="M8 0H532C536.418 0 540 3.58172 540 8V279C540 283.418 536.418 287 532 287H8C3.58172 287 0 283.418 0 279V8C0 3.58172 3.58172 0 8 0Z" fill="white"/>
<path d="M124 188C159.346 188 188 159.346 188 124C188 88.6538 159.346 60 124 60C88.6538 60 60 88.6538 60 124C60 159.346 88.6538 188 124 188Z" fill="#F2F5F8"/>
<path fill-rule="evenodd" clip-rule="evenodd" d="M155.282 107.403C153.023 106.52 150.503 107.11 148.827 108.952L125.439 136.255C124.747 137.013 123.615 137.107 123.078 136.724L111.579 123.858C110.315 122.877 108.755 122.47 107.165 122.697C105.586 122.931 104.201 123.776 103.365 124.957L90.2403 140.528C88.8597 142.31 88.6108 144.679 89.5986 146.708C90.5825 148.737 92.5931 150 94.8408 150H153.167C156.383 150 159 147.369 159 144.136V112.869C159 110.429 157.542 108.287 155.282 107.403Z" fill="#CBD6E2"/>
<path fill-rule="evenodd" clip-rule="evenodd" d="M95.5 111C99.0912 111 102 108.091 102 104.5C102 100.909 99.0912 98 95.5 98C91.9088 98 89 100.909 89 104.5C89 108.091 91.9088 111 95.5 111Z" fill="#CBD6E2"/>
<path fill-rule="evenodd" clip-rule="evenodd" d="M223 94H475C477.761 94 480 96.2386 480 99C480 101.761 477.761 104 475 104H223C220.239 104 218 101.761 218 99C218 96.2386 220.239 94 223 94Z" fill="#CBD6E2"/>
<path fill-rule="evenodd" clip-rule="evenodd" d="M223 119H475C477.761 119 480 121.239 480 124C480 126.761 477.761 129 475 129H223C220.239 129 218 126.761 218 124C218 121.239 220.239 119 223 119Z" fill="#CBD6E2"/>
<path fill-rule="evenodd" clip-rule="evenodd" d="M223 144H475C477.761 144 480 146.239 480 149C480 151.761 477.761 154 475 154H223C220.239 154 218 151.761 218 149C218 146.239 220.239 144 223 144Z" fill="#CBD6E2"/>
<path d="M399 226C405.627 226 411 220.627 411 214C411 207.373 405.627 202 399 202C392.373 202 387 207.373 387 214C387 220.627 392.373 226 399 226Z" fill="#CBD6E2"/>
<path d="M434 226C440.627 226 446 220.627 446 214C446 207.373 440.627 202 434 202C427.373 202 422 207.373 422 214C422 220.627 427.373 226 434 226Z" fill="#CBD6E2"/>
<path d="M468 226C474.627 226 480 220.627 480 214C480 207.373 474.627 202 468 202C461.373 202 456 207.373 456 214C456 220.627 461.373 226 468 226Z" fill="#CBD6E2"/>
<path fill-rule="evenodd" clip-rule="evenodd" d="M65 209H183C185.761 209 188 211.239 188 214C188 216.761 185.761 219 183 219H65C62.2386 219 60 216.761 60 214C60 211.239 62.2386 209 65 209Z" fill="#CBD6E2"/>
<rect width="540" height="287" rx="8" fill="#181251" fill-opacity="0.25"/>
<path d="M270 208C305.346 208 334 179.346 334 144C334 108.654 305.346 80 270 80C234.654 80 206 108.654 206 144C206 179.346 234.654 208 270 208Z" fill="#CA4655"/>
<path d="M295.925 123.778L259.666 160.036L243.185 143.555" stroke="white" stroke-width="7" stroke-linecap="round" stroke-linejoin="round"/>
</g>
<defs>
<clipPath id="clip0_60_151">
<rect width="540" height="287" rx="8" fill="white"/>
</clipPath>
</defs>
</svg>
