<svg width="540" height="393" viewBox="0 0 540 393" fill="none" xmlns="http://www.w3.org/2000/svg">
<g clip-path="url(#clip0_60_134)">
<path fill-rule="evenodd" clip-rule="evenodd" d="M8 0H532C536.418 0 540 3.58172 540 8V385C540 389.418 536.418 393 532 393H8C3.58172 393 0 389.418 0 385V8C0 3.58172 3.58172 0 8 0Z" fill="white"/>
<path d="M270 188C305.346 188 334 159.346 334 124C334 88.6538 305.346 60 270 60C234.654 60 206 88.6538 206 124C206 159.346 234.654 188 270 188Z" fill="#F2F5F8"/>
<path fill-rule="evenodd" clip-rule="evenodd" d="M301.282 107.403C299.023 106.52 296.503 107.11 294.827 108.952L271.439 136.255C270.747 137.013 269.615 137.107 269.078 136.724L257.579 123.858C256.315 122.877 254.755 122.47 253.165 122.697C251.586 122.931 250.201 123.776 249.365 124.957L236.24 140.528C234.86 142.31 234.611 144.679 235.599 146.708C236.583 148.737 238.593 150 240.841 150H299.167C302.383 150 305 147.369 305 144.136V112.869C305 110.429 303.542 108.287 301.282 107.403Z" fill="#CBD6E2"/>
<path fill-rule="evenodd" clip-rule="evenodd" d="M241.5 111C245.091 111 248 108.091 248 104.5C248 100.909 245.091 98 241.5 98C237.909 98 235 100.909 235 104.5C235 108.091 237.909 111 241.5 111Z" fill="#CBD6E2"/>
<path fill-rule="evenodd" clip-rule="evenodd" d="M195 208H345C347.761 208 350 210.239 350 213C350 215.761 347.761 218 345 218H195C192.239 218 190 215.761 190 213C190 210.239 192.239 208 195 208Z" fill="#CBD6E2"/>
<path fill-rule="evenodd" clip-rule="evenodd" d="M195 233H345C347.761 233 350 235.239 350 238C350 240.761 347.761 243 345 243H195C192.239 243 190 240.761 190 238C190 235.239 192.239 233 195 233Z" fill="#CBD6E2"/>
<path d="M387 318C393.627 318 399 312.627 399 306C399 299.373 393.627 294 387 294C380.373 294 375 299.373 375 306C375 312.627 380.373 318 387 318Z" fill="#CBD6E2"/>
<path d="M422 318C428.627 318 434 312.627 434 306C434 299.373 428.627 294 422 294C415.373 294 410 299.373 410 306C410 312.627 415.373 318 422 318Z" fill="#CBD6E2"/>
<path d="M456 318C462.627 318 468 312.627 468 306C468 299.373 462.627 294 456 294C449.373 294 444 299.373 444 306C444 312.627 449.373 318 456 318Z" fill="#CBD6E2"/>
<path fill-rule="evenodd" clip-rule="evenodd" d="M77 273H311C313.761 273 316 275.239 316 278C316 280.761 313.761 283 311 283H77C74.2386 283 72 280.761 72 278C72 275.239 74.2386 273 77 273Z" fill="#CBD6E2"/>
<path fill-rule="evenodd" clip-rule="evenodd" d="M77 298H311C313.761 298 316 300.239 316 303C316 305.761 313.761 308 311 308H77C74.2386 308 72 305.761 72 303C72 300.239 74.2386 298 77 298Z" fill="#CBD6E2"/>
<path fill-rule="evenodd" clip-rule="evenodd" d="M78 323H312C314.761 323 317 325.239 317 328C317 330.761 314.761 333 312 333H78C75.2386 333 73 330.761 73 328C73 325.239 75.2386 323 78 323Z" fill="#CBD6E2"/>
<rect width="540" height="393" rx="8" fill="#181251" fill-opacity="0.5"/>
<path d="M270 261C305.346 261 334 232.346 334 197C334 161.654 305.346 133 270 133C234.654 133 206 161.654 206 197C206 232.346 234.654 261 270 261Z" fill="#CA4655"/>
<path d="M295.925 176.778L259.666 213.036L243.185 196.555" stroke="white" stroke-width="7" stroke-linecap="round" stroke-linejoin="round"/>
</g>
<defs>
<clipPath id="clip0_60_134">
<rect width="540" height="393" rx="8" fill="white"/>
</clipPath>
</defs>
</svg>
