<svg width="540" height="287" viewBox="0 0 540 287" fill="none" xmlns="http://www.w3.org/2000/svg">
<g clip-path="url(#clip0_60_166)">
<path fill-rule="evenodd" clip-rule="evenodd" d="M8 0H532C536.418 0 540 3.58172 540 8V279C540 283.418 536.418 287 532 287H8C3.58172 287 0 283.418 0 279V8C0 3.58172 3.58172 0 8 0Z" fill="white"/>
<path fill-rule="evenodd" clip-rule="evenodd" d="M65 68H215C217.761 68 220 70.2386 220 73C220 75.7614 217.761 78 215 78H65C62.2386 78 60 75.7614 60 73C60 70.2386 62.2386 68 65 68Z" fill="#CBD6E2"/>
<path d="M416 188C451.346 188 480 159.346 480 124C480 88.6538 451.346 60 416 60C380.654 60 352 88.6538 352 124C352 159.346 380.654 188 416 188Z" fill="#F2F5F8"/>
<path fill-rule="evenodd" clip-rule="evenodd" d="M447.282 107.403C445.023 106.52 442.503 107.11 440.827 108.952L417.439 136.255C416.747 137.013 415.615 137.107 415.078 136.724L403.579 123.858C402.315 122.877 400.755 122.47 399.165 122.697C397.586 122.931 396.201 123.776 395.365 124.957L382.24 140.528C380.86 142.31 380.611 144.679 381.599 146.708C382.582 148.737 384.593 150 386.841 150H445.167C448.383 150 451 147.369 451 144.136V112.869C451 110.429 449.542 108.287 447.282 107.403Z" fill="#CBD6E2"/>
<path fill-rule="evenodd" clip-rule="evenodd" d="M387.5 111C391.091 111 394 108.091 394 104.5C394 100.909 391.091 98 387.5 98C383.909 98 381 100.909 381 104.5C381 108.091 383.909 111 387.5 111Z" fill="#CBD6E2"/>
<path d="M382 226C388.627 226 394 220.627 394 214C394 207.373 388.627 202 382 202C375.373 202 370 207.373 370 214C370 220.627 375.373 226 382 226Z" fill="#CBD6E2"/>
<path d="M417 226C423.627 226 429 220.627 429 214C429 207.373 423.627 202 417 202C410.373 202 405 207.373 405 214C405 220.627 410.373 226 417 226Z" fill="#CBD6E2"/>
<path d="M451 226C457.627 226 463 220.627 463 214C463 207.373 457.627 202 451 202C444.373 202 439 207.373 439 214C439 220.627 444.373 226 451 226Z" fill="#CBD6E2"/>
<path fill-rule="evenodd" clip-rule="evenodd" d="M65 96H215C217.761 96 220 98.2386 220 101C220 103.761 217.761 106 215 106H65C62.2386 106 60 103.761 60 101C60 98.2386 62.2386 96 65 96Z" fill="#CBD6E2"/>
<path fill-rule="evenodd" clip-rule="evenodd" d="M65 161H299C301.761 161 304 163.239 304 166C304 168.761 301.761 171 299 171H65C62.2386 171 60 168.761 60 166C60 163.239 62.2386 161 65 161Z" fill="#CBD6E2"/>
<path fill-rule="evenodd" clip-rule="evenodd" d="M65 189H299C301.761 189 304 191.239 304 194C304 196.761 301.761 199 299 199H65C62.2386 199 60 196.761 60 194C60 191.239 62.2386 189 65 189Z" fill="#CBD6E2"/>
<path fill-rule="evenodd" clip-rule="evenodd" d="M66 216H300C302.761 216 305 218.239 305 221C305 223.761 302.761 226 300 226H66C63.2386 226 61 223.761 61 221C61 218.239 63.2386 216 66 216Z" fill="#CBD6E2"/>
<rect width="540" height="287" rx="8" fill="#181251" fill-opacity="0.5"/>
<path d="M270 208C305.346 208 334 179.346 334 144C334 108.654 305.346 80 270 80C234.654 80 206 108.654 206 144C206 179.346 234.654 208 270 208Z" fill="#CA4655"/>
<path d="M295.925 123.778L259.666 160.036L243.185 143.555" stroke="white" stroke-width="7" stroke-linecap="round" stroke-linejoin="round"/>
</g>
<defs>
<clipPath id="clip0_60_166">
<rect width="540" height="287" rx="8" fill="white"/>
</clipPath>
</defs>
</svg>
